<svg width="27" height="26" viewBox="0 0 27 26" fill="none" xmlns="http://www.w3.org/2000/svg">
<path d="M22.95 0H4.05C1.755 0 0 1.755 0 4.05V17.55C0 19.845 1.755 21.6 4.05 21.6H18.2247C19.816 21.6 21.3421 22.2321 22.4674 23.3574L24.705 25.595C25.245 26.135 26.055 26.135 26.595 25.595C26.865 25.325 27 25.055 27 24.65V4.05C27 1.755 25.245 0 22.95 0ZM14.85 14.85H6.75C5.94 14.85 5.4 14.31 5.4 13.5C5.4 12.69 5.94 12.15 6.75 12.15H14.85C15.66 12.15 16.2 12.69 16.2 13.5C16.2 14.31 15.66 14.85 14.85 14.85ZM20.25 9.45H6.75C5.94 9.45 5.4 8.91 5.4 8.1C5.4 7.29 5.94 6.75 6.75 6.75H20.25C21.06 6.75 21.6 7.29 21.6 8.1C21.6 8.91 21.06 9.45 20.25 9.45Z" fill="white"/>
</svg>
